<?xml version="1.0" encoding="utf-8"?>
<!-- Generator: Adobe Illustrator 21.0.0, SVG Export Plug-In . SVG Version: 6.00 Build 0)  -->
<svg version="1.1" id="Layer_1" xmlns="http://www.w3.org/2000/svg" xmlns:xlink="http://www.w3.org/1999/xlink" x="0px" y="0px"
	 viewBox="250 250 1084.1 508.2" style="enable-background:new 0 0 1584.1 1008.2;" xml:space="preserve" preserveAspectRatio="none">
<style type="text/css">
	.st0{fill:url(#SVGID_1_);}
</style>
<linearGradient id="SVGID_1_" gradientUnits="userSpaceOnUse" x1="-507.3044" y1="155.7996" x2="403.9971" y2="155.7996" gradientTransform="matrix(-0.7071 0.7071 -0.7071 -0.7071 865.7321 650.7996)">
	<stop  offset="0" style="stop-color:#EE0979"/>
	<stop  offset="0.1936" style="stop-color:#F11767"/>
	<stop  offset="0.5814" style="stop-color:#F73D39"/>
	<stop  offset="1" style="stop-color:#FF6A00"/>
</linearGradient>
<path class="st0" d="M1080,252c-69,0-131.5,27.7-177,72.6c-0.8,0.8-290.1,290.1-290.1,290.1c-28.1,27.7-66.6,44.8-109.2,44.8
	c-85.9,0-155.5-69.6-155.5-155.5s69.6-155.5,155.5-155.5c42.6,0,81.1,17.1,109.2,44.8l5.6,5.6l-38.4,38.4h145.2V292.2L687,330.6
	c-3.4-3.4-5.7-5.7-5.9-5.9c-45.5-44.9-108-72.6-177-72.6c-139.2,0-252,112.8-252,252s112.8,252,252,252c69,0,131.5-27.7,177-72.6
	l290.1-290.1c28.1-27.7,66.6-44.8,109.2-44.8c85.9,0,155.5,69.6,155.5,155.5s-69.6,155.5-155.5,155.5c-42.6,0-81.1-17.1-109.2-44.8
	c-0.5-0.5-76.5-76.5-76.5-76.5l-68.4,68.4l76.8,76.8c45.5,44.9,108,72.6,177,72.6c139.2,0,252-112.8,252-252
	C1332,364.9,1219.2,252,1080,252z"/>
</svg>
